<svg width="32" height="32" viewBox="0 0 32 32" fill="none" xmlns="http://www.w3.org/2000/svg">
  <rect width="32" height="32" rx="6" fill="url(#gradient)"/>
  <defs>
    <linearGradient id="gradient" x1="0" y1="0" x2="32" y2="32" gradientUnits="userSpaceOnUse">
      <stop stop-color="#667eea"/>
      <stop offset="1" stop-color="#764ba2"/>
    </linearGradient>
  </defs>
  <!-- Microphone icon -->
  <path d="M16 2C14.9 2 14 2.9 14 4v8c0 1.1.9 2 2 2s2-.9 2-2V4c0-1.1-.9-2-2-2z" fill="white"/>
  <path d="M20 10v2c0 2.2-1.8 4-4 4s-4-1.8-4-4v-2h-2v2c0 3.1 2.3 5.7 5.3 6v2.7h-2.8v2h7v-2h-2.8V20c2.9-.3 5.3-2.9 5.3-6v-2h-2z" fill="white"/>
  <!-- Sound waves -->
  <path d="M23 12c0 .6.4 1 1 1s1-.4 1-1c0-1.7-.7-3.3-1.9-4.4-.3-.3-.8-.3-1.1 0s-.3.8 0 1.1c.8.8 1 1.8 1 3.3z" fill="white" opacity="0.8"/>
  <path d="M8 12c0-1.5.2-2.5 1-3.3.3-.3.3-.8 0-1.1s-.8-.3-1.1 0C6.7 8.7 6 10.3 6 12c0 .6.4 1 1 1s1-.4 1-1z" fill="white" opacity="0.8"/>
</svg>